<?xml version="1.0" standalone="no"?>
<!DOCTYPE svg PUBLIC "-//W3C//DTD SVG 20010904//EN"
 "http://www.w3.org/TR/2001/REC-SVG-20010904/DTD/svg10.dtd">
<svg version="1.0" xmlns="http://www.w3.org/2000/svg"
 width="64.000000pt" height="64.000000pt" viewBox="0 0 64.000000 64.000000"
 preserveAspectRatio="xMidYMid meet">
<metadata>
Created by potrace 1.16, written by Peter Selinger 2001-2019
</metadata>
<g transform="translate(0.000000,64.000000) scale(0.100000,-0.100000)"
fill="#000000" stroke="none">
<path d="M0 320 l0 -320 320 0 320 0 0 320 0 320 -320 0 -320 0 0 -320z m297
253 c2 -5 -16 -16 -41 -23 -56 -15 -120 -69 -148 -124 -30 -57 -31 -155 -1
-212 30 -57 95 -112 148 -126 49 -13 56 -35 10 -30 -71 8 -170 93 -196 168
-20 60 -16 152 9 205 29 60 88 116 148 139 51 20 65 21 71 3z m143 -14 c20 -9
55 -38 77 -62 118 -128 80 -337 -77 -417 -46 -23 -91 -29 -97 -12 -3 7 3 12
14 12 33 1 99 37 136 75 40 42 67 109 67 169 0 93 -83 200 -173 225 -26 8 -47
17 -47 21 0 24 39 20 100 -11z"/>
</g>
</svg>
